# Blender v3.1.2 OBJ File: 'scope - smg.blend'
# www.blender.org
o Cube
v 0.055254 0.041225 -0.062896
v 0.055254 -0.055254 -0.055254
v 0.055254 0.041225 0.062896
v 0.055254 -0.055254 0.055254
v -0.055254 0.041225 -0.062896
v -0.055254 -0.055254 -0.055254
v -0.055254 0.041225 0.062896
v -0.055254 -0.055254 0.055254
v 0.055254 0.023931 -0.044982
v 0.055254 0.023931 0.044982
v -0.055254 0.023931 0.044982
v -0.055254 0.023931 -0.044982
v 0.055254 -0.038830 -0.039516
v 0.055254 -0.038830 0.039516
v -0.055254 -0.038830 0.039516
v -0.055254 -0.038830 -0.039516
vt 0.875000 0.666667
vt 0.625000 0.750000
vt 0.625000 0.666667
vt 0.375000 1.000000
vt 0.375000 0.750000
vt 0.375000 0.500000
vt 0.625000 0.666667
vt 0.125000 0.750000
vt 0.125000 0.500000
vt 0.375000 0.250000
vt 0.875000 0.583333
vt 0.625000 0.250000
vt 0.875000 0.500000
vt 0.625000 0.583333
vt 0.625000 0.500000
vt 0.625000 0.583333
vt 0.875000 0.583333
vt 0.875000 0.666667
vt 0.875000 0.750000
vt 0.625000 1.000000
vn 0.0000 0.7195 -0.6945
vn 0.0000 -0.0790 0.9969
vn 1.0000 -0.0000 0.0000
vn 0.0000 -1.0000 0.0000
vn -1.0000 0.0000 0.0000
vn 0.0000 -0.0790 -0.9969
vn 0.0000 0.7195 0.6945
vn 0.0000 1.0000 0.0000
vn 0.0000 0.0868 0.9962
vn 0.0000 0.0868 -0.9962
s off
f 11/1/1 3/2/1 10/3/1
f 3/2/2 8/4/2 4/5/2
f 2/6/3 14/7/3 4/5/3
f 2/6/4 8/8/4 6/9/4
f 6/10/5 8/4/5 16/11/5
f 5/12/6 2/6/6 6/10/6
f 5/13/7 9/14/7 1/15/7
f 16/11/8 14/7/8 13/16/8
f 12/17/9 13/16/9 9/14/9
f 10/3/10 15/18/10 11/1/10
f 11/1/1 7/19/1 3/2/1
f 3/2/2 7/20/2 8/4/2
f 2/6/3 1/15/3 9/14/3
f 2/6/3 9/14/3 13/16/3
f 10/3/3 3/2/3 4/5/3
f 2/6/3 13/16/3 14/7/3
f 14/7/3 10/3/3 4/5/3
f 2/6/4 4/5/4 8/8/4
f 8/4/5 7/19/5 11/1/5
f 8/4/5 11/1/5 15/18/5
f 12/17/5 5/12/5 6/10/5
f 8/4/5 15/18/5 16/11/5
f 16/11/5 12/17/5 6/10/5
f 5/12/6 1/15/6 2/6/6
f 5/13/7 12/17/7 9/14/7
f 16/11/8 15/18/8 14/7/8
f 12/17/9 16/11/9 13/16/9
f 10/3/10 14/7/10 15/18/10
