# Blender v3.1.2 OBJ File: 'stock -  steel.blend'
# www.blender.org
o Cube
v 0.252213 0.147491 -0.079550
v 0.252213 -0.149484 -0.079550
v 0.252213 0.147491 0.079550
v 0.252213 -0.149484 0.079550
v 0.050556 0.105952 -0.032882
v 0.050556 0.002475 -0.032882
v 0.050556 0.105952 0.032882
v 0.050556 0.002475 0.032882
v -0.207837 0.002475 -0.032882
v -0.207837 0.002475 0.032882
v -0.207837 0.105952 0.032882
v -0.207837 0.105952 -0.032882
v -0.258525 0.002475 -0.032882
v -0.258525 0.002475 0.032882
v -0.258525 0.105952 0.032882
v -0.258525 0.105952 -0.032882
v -0.207837 -0.148120 -0.032882
v -0.207837 -0.148120 0.032882
v -0.258525 -0.148120 -0.032882
v -0.258525 -0.148120 0.032882
v -0.207837 0.132718 0.032882
v -0.207837 0.132718 -0.032882
v -0.258525 0.132718 0.032882
v -0.258525 0.132718 -0.032882
v -0.207837 -0.110052 0.032882
v -0.207837 -0.110052 -0.032882
v -0.165719 -0.148120 -0.032882
v -0.165719 -0.148120 0.032882
v -0.165719 -0.110052 -0.032882
v -0.165719 -0.110052 0.032882
vt 0.625000 0.500000
vt 0.875000 0.500000
vt 0.875000 0.750000
vt 0.625000 0.750000
vt 0.375000 0.750000
vt 0.625000 1.000000
vt 0.375000 1.000000
vt 0.125000 0.500000
vt 0.125000 0.750000
vt 0.125000 0.750000
vt 0.125000 0.500000
vt 0.375000 0.500000
vt 0.375000 0.250000
vt 0.625000 0.250000
vt 0.875000 0.750000
vt 0.875000 0.500000
vt 0.875000 0.500000
vt 0.875000 0.750000
vt 0.375000 0.250000
vt 0.625000 0.250000
vt 0.625000 1.000000
vt 0.375000 1.000000
vt 0.375000 0.000000
vt 0.625000 0.000000
vt 0.625000 0.250000
vt 0.375000 0.250000
vt 0.625000 1.000000
vt 0.375000 1.000000
vt 0.375000 1.000000
vt 0.375000 1.000000
vt 0.375000 1.000000
vt 0.125000 0.500000
vt 0.125000 0.750000
vt 0.125000 0.750000
vt 0.125000 0.500000
vt 0.375000 0.250000
vt 0.375000 0.000000
vt 0.375000 0.250000
vt 0.375000 0.250000
vt 0.375000 1.000000
vt 0.375000 1.000000
vt 0.875000 0.500000
vt 0.875000 0.750000
vt 0.625000 0.250000
vt 0.625000 0.250000
vt 0.625000 1.000000
vt 0.625000 1.000000
vt 0.625000 0.000000
vt 0.125000 0.750000
vt 0.125000 0.500000
vt 0.125000 0.500000
vt 0.125000 0.750000
vt 0.125000 0.750000
vt 0.125000 0.500000
vt 0.375000 0.250000
vt 0.375000 0.250000
vn -0.2018 0.9794 0.0000
vn -0.2255 0.0000 0.9743
vn 0.0000 -1.0000 0.0000
vn -0.6018 -0.7986 0.0000
vn 1.0000 0.0000 0.0000
vn -0.2255 0.0000 -0.9743
vn 0.0000 1.0000 0.0000
vn 0.0000 0.0000 -1.0000
vn 0.0000 0.0000 1.0000
vn -1.0000 0.0000 0.0000
s off
f 1/1/1 5/2/1 7/3/1 3/4/1
f 4/5/2 3/4/2 7/6/2 8/7/2
f 6/8/3 8/9/3 10/10/3 9/11/3
f 6/8/4 2/12/4 4/5/4 8/9/4
f 2/12/5 1/1/5 3/4/5 4/5/5
f 6/13/6 5/14/6 1/1/6 2/12/6
f 11/15/5 12/16/5 22/17/5 21/18/5
f 7/3/7 5/2/7 12/16/7 11/15/7
f 5/14/8 6/13/8 9/19/8 12/20/8
f 8/7/9 7/6/9 11/21/9 10/22/9
f 14/23/10 15/24/10 16/25/10 13/26/10
f 10/22/9 11/21/9 15/27/9 14/28/9
f 12/20/8 9/19/8 13/26/8 16/25/8
f 10/22/9 14/28/9 20/29/9 18/30/9 25/31/9
f 17/32/3 18/33/3 20/34/3 19/35/3
f 14/23/10 13/26/10 19/36/10 20/37/10
f 13/26/8 9/19/8 26/38/8 17/39/8 19/36/8
f 25/31/9 18/30/9 28/40/9 30/41/9
f 21/18/7 22/17/7 24/42/7 23/43/7
f 12/20/8 16/25/8 24/44/8 22/45/8
f 15/27/9 11/21/9 21/46/9 23/47/9
f 16/25/10 15/24/10 23/48/10 24/44/10
f 9/11/5 10/10/5 25/49/5 26/50/5
f 29/51/5 30/52/5 28/53/5 27/54/5
f 18/33/3 17/32/3 27/54/3 28/53/3
f 17/39/8 26/38/8 29/55/8 27/56/8
f 26/50/7 25/49/7 30/52/7 29/51/7
