# Blender v3.1.2 OBJ File: 'stock -  wood.blend'
# www.blender.org
o Cube
v 0.188395 0.147491 -0.079550
v 0.188395 -0.149484 -0.079550
v 0.188395 0.147491 0.079550
v 0.188395 -0.149484 0.079550
v -0.003327 0.147491 -0.037676
v -0.003327 0.009776 -0.037676
v -0.003327 0.147491 0.037676
v -0.003327 0.009776 0.037676
v -0.146044 0.009776 -0.037676
v -0.146044 0.009776 0.037676
v -0.146044 0.147491 0.037676
v -0.146044 0.147491 -0.037676
v -0.337958 -0.064807 -0.037676
v -0.337958 -0.064807 0.037676
v -0.337958 0.147491 0.037676
v -0.337958 0.147491 -0.037676
v -0.370401 -0.064807 -0.037676
v -0.370401 -0.064807 0.037676
v -0.370401 0.147491 0.037676
v -0.370401 0.147491 -0.037676
vt 0.625000 0.500000
vt 0.875000 0.500000
vt 0.875000 0.750000
vt 0.625000 0.750000
vt 0.375000 0.750000
vt 0.625000 1.000000
vt 0.375000 1.000000
vt 0.125000 0.500000
vt 0.125000 0.750000
vt 0.125000 0.750000
vt 0.125000 0.500000
vt 0.375000 0.500000
vt 0.375000 0.250000
vt 0.625000 0.250000
vt 0.875000 0.750000
vt 0.875000 0.500000
vt 0.875000 0.500000
vt 0.875000 0.750000
vt 0.375000 0.250000
vt 0.625000 0.250000
vt 0.625000 1.000000
vt 0.375000 1.000000
vt 0.625000 0.250000
vt 0.375000 0.250000
vt 0.375000 0.250000
vt 0.625000 0.250000
vt 0.625000 1.000000
vt 0.375000 1.000000
vt 0.125000 0.750000
vt 0.125000 0.500000
vt 0.375000 0.000000
vt 0.625000 0.000000
vt 0.125000 0.750000
vt 0.125000 0.500000
vt 0.875000 0.500000
vt 0.875000 0.750000
vt 0.625000 1.000000
vt 0.375000 1.000000
vn 0.0000 1.0000 0.0000
vn -0.2134 0.0000 0.9770
vn 0.0000 -1.0000 0.0000
vn -0.6390 -0.7692 0.0000
vn 1.0000 0.0000 0.0000
vn -0.2134 0.0000 -0.9770
vn 0.0000 0.0000 -1.0000
vn 0.0000 0.0000 1.0000
vn 0.3622 -0.9321 0.0000
vn -1.0000 0.0000 0.0000
s off
f 1/1/1 5/2/1 7/3/1 3/4/1
f 4/5/2 3/4/2 7/6/2 8/7/2
f 6/8/3 8/9/3 10/10/3 9/11/3
f 6/8/4 2/12/4 4/5/4 8/9/4
f 2/12/5 1/1/5 3/4/5 4/5/5
f 6/13/6 5/14/6 1/1/6 2/12/6
f 11/15/1 12/16/1 16/17/1 15/18/1
f 7/3/1 5/2/1 12/16/1 11/15/1
f 5/14/7 6/13/7 9/19/7 12/20/7
f 8/7/8 7/6/8 11/21/8 10/22/8
f 16/23/7 13/24/7 17/25/7 20/26/7
f 10/22/8 11/21/8 15/27/8 14/28/8
f 12/20/7 9/19/7 13/24/7 16/23/7
f 9/11/9 10/10/9 14/29/9 13/30/9
f 18/31/10 19/32/10 20/26/10 17/25/10
f 13/30/3 14/29/3 18/33/3 17/34/3
f 15/18/1 16/17/1 20/35/1 19/36/1
f 14/28/8 15/27/8 19/37/8 18/38/8
