# Blender v3.1.2 OBJ File: 'barrel - shotgun.blend'
# www.blender.org
o Cube
v 0.036854 0.147491 -0.079550
v 0.036854 -0.149484 -0.052386
v 0.036854 0.147491 0.079550
v 0.036854 -0.149484 0.052386
v -0.229962 0.147491 -0.079550
v -0.229962 -0.149484 -0.052386
v -0.229962 0.147491 0.079550
v -0.229962 -0.149484 0.052386
v 0.036854 -0.000996 -0.079550
v -0.229962 -0.000996 0.079550
v 0.036854 -0.000996 0.079550
v -0.229962 -0.000996 -0.079550
v 0.036854 -0.007232 -0.043132
v 0.036854 -0.007232 0.043132
v -0.229962 -0.007232 -0.043132
v -0.229962 -0.007232 0.043132
v 0.036854 -0.078358 -0.079550
v 0.036854 -0.078358 0.079550
v -0.229962 -0.078358 -0.079550
v -0.229962 -0.078358 0.079550
v 0.248246 -0.078358 -0.079550
v 0.248246 -0.149484 -0.052386
v 0.248246 -0.078358 0.079550
v 0.248246 -0.149484 0.052386
v 0.248246 0.147491 -0.079550
v 0.248246 0.147491 0.079550
v 0.248246 -0.000996 -0.079550
v 0.248246 -0.000996 0.079550
v 0.248246 -0.007232 -0.043132
v 0.248246 -0.007232 0.043132
v 0.405962 -0.078358 -0.079550
v 0.405962 -0.149484 -0.052386
v 0.405962 -0.078358 0.079550
v 0.405962 -0.149484 0.052386
v 0.405962 0.147491 -0.079550
v 0.405962 0.147491 0.079550
v 0.405962 -0.000996 -0.079550
v 0.405962 -0.000996 0.079550
v 0.405962 -0.007232 -0.043132
v 0.405962 -0.007232 0.043132
v 0.059694 -0.084814 -0.109447
v 0.059694 -0.168631 -0.072073
v 0.059694 -0.084814 0.109447
v 0.059694 -0.168631 0.072073
v 0.059694 -0.000996 -0.059342
v 0.059694 -0.000996 0.059342
v 0.225406 -0.084814 -0.109447
v 0.225406 -0.168631 -0.072073
v 0.225406 -0.084814 0.109447
v 0.225406 -0.168631 0.072073
v 0.225406 -0.000996 -0.059342
v 0.225406 -0.000996 0.059342
vt 0.625000 0.500000
vt 0.875000 0.500000
vt 0.875000 0.750000
vt 0.625000 0.750000
vt 0.500000 0.750000
vt 0.625000 1.000000
vt 0.500000 1.000000
vt 0.500000 0.000000
vt 0.625000 0.000000
vt 0.625000 0.250000
vt 0.500000 0.250000
vt 0.125000 0.500000
vt 0.375000 0.500000
vt 0.375000 0.750000
vt 0.125000 0.750000
vt 0.434876 0.500000
vt 0.434876 0.500000
vt 0.375000 0.500000
vt 0.500000 0.500000
vt 0.494751 0.250000
vt 0.494751 0.500000
vt 0.494751 0.750000
vt 0.494751 0.750000
vt 0.500000 0.750000
vt 0.494751 0.000000
vt 0.494751 1.000000
vt 0.434876 0.750000
vt 0.434876 1.000000
vt 0.434876 0.000000
vt 0.434876 0.250000
vt 0.625000 0.750000
vt 0.375000 0.250000
vt 0.625000 0.500000
vt 0.375000 0.000000
vt 0.375000 1.000000
vt 0.434876 0.500000
vt 0.494751 0.500000
vt 0.494751 0.500000
vt 0.434876 0.500000
vt 0.375000 0.750000
vt 0.375000 0.500000
vt 0.375000 0.500000
vt 0.375000 0.750000
vt 0.625000 0.750000
vt 0.625000 0.500000
vt 0.500000 0.750000
vt 0.375000 0.500000
vt 0.434876 0.500000
vt 0.494751 0.500000
vt 0.494751 0.500000
vt 0.500000 0.500000
vt 0.434876 0.750000
vt 0.494751 0.750000
vt 0.500000 0.500000
vt 0.494751 0.750000
vt 0.434876 0.750000
vt 0.434876 0.750000
vt 0.375000 0.750000
vt 0.375000 0.750000
vt 0.434876 0.750000
vt 0.494751 0.750000
vn 0.0000 1.0000 0.0000
vn 0.0000 0.0000 1.0000
vn -1.0000 0.0000 0.0000
vn 0.0000 -1.0000 0.0000
vn -0.7728 -0.2440 -0.5859
vn 0.0000 0.0000 -1.0000
vn 0.0000 -0.9857 -0.1688
vn 0.0000 -0.9857 0.1688
vn 0.0000 0.4558 0.8901
vn 0.0000 0.4558 -0.8901
vn 0.0000 -0.3568 -0.9342
vn 0.0000 -0.3568 0.9342
vn 0.7728 -0.2440 -0.5859
vn 0.0000 0.9333 0.3590
vn 0.6602 0.3662 -0.6558
vn -0.6602 0.3662 0.6558
vn 1.0000 0.0000 0.0000
vn 0.0000 -0.4072 0.9133
vn 0.0000 0.5131 -0.8583
vn 0.0000 0.5131 0.8583
vn 0.0000 -0.4072 -0.9133
vn 0.6602 0.3662 0.6558
vn 0.7728 -0.2440 0.5859
vn -0.7728 -0.2440 0.5859
vn -0.6602 0.3662 -0.6558
vn -0.6424 -0.7663 0.0000
vn 0.0000 0.9333 -0.3590
vn 0.6424 -0.7663 0.0000
s off
f 1/1/1 5/2/1 7/3/1 3/4/1
f 11/5/2 3/4/2 7/6/2 10/7/2
f 10/8/3 7/9/3 5/10/3 12/11/3
f 6/12/4 2/13/4 4/14/4 8/15/4
f 2/13/5 17/16/5 41/17/5 42/18/5
f 12/11/6 5/10/6 1/1/6 9/19/6
f 15/20/7 12/11/7 9/19/7 13/21/7
f 11/5/8 14/22/8 30/23/8 28/24/8
f 16/25/3 10/8/3 12/11/3 15/20/3
f 14/22/8 11/5/8 10/7/8 16/26/8
f 18/27/9 14/22/9 16/26/9 20/28/9
f 20/29/3 16/25/3 15/20/3 19/30/3
f 3/4/2 11/5/2 28/24/2 26/31/2
f 19/30/10 15/20/10 13/21/10 17/16/10
f 6/32/11 19/30/11 17/16/11 2/13/11
f 1/1/1 3/4/1 26/31/1 25/33/1
f 8/34/3 20/29/3 19/30/3 6/32/3
f 4/14/12 18/27/12 20/28/12 8/35/12
f 21/36/10 29/37/10 39/38/10 31/39/10
f 24/40/4 22/41/4 32/42/4 34/43/4
f 25/33/1 26/31/1 36/44/1 35/45/1
f 26/31/2 28/24/2 38/46/2 36/44/2
f 21/36/13 22/41/13 48/47/13 47/48/13
f 13/21/14 29/37/14 51/49/14 45/50/14
f 29/37/15 21/36/15 47/48/15 51/49/15
f 9/19/6 1/1/6 25/33/6 27/51/6
f 14/22/16 18/27/16 43/52/16 46/53/16
f 13/21/7 9/19/7 27/51/7 29/37/7
f 37/54/17 35/45/17 36/44/17 38/46/17
f 39/38/17 37/54/17 38/46/17 40/55/17
f 31/39/17 39/38/17 40/55/17 33/56/17
f 32/42/17 31/39/17 33/56/17 34/43/17
f 22/41/11 21/36/11 31/39/11 32/42/11
f 29/37/7 27/51/7 37/54/7 39/38/7
f 27/51/6 25/33/6 35/45/6 37/54/6
f 30/23/9 23/57/9 33/56/9 40/55/9
f 23/57/12 24/40/12 34/43/12 33/56/12
f 28/24/8 30/23/8 40/55/8 38/46/8
f 43/52/18 44/58/18 50/59/18 49/60/18
f 44/58/4 42/18/4 48/47/4 50/59/4
f 41/17/19 45/50/19 51/49/19 47/48/19
f 46/53/20 43/52/20 49/60/20 52/61/20
f 42/18/21 41/17/21 47/48/21 48/47/21
f 23/57/22 30/23/22 52/61/22 49/60/22
f 24/40/23 23/57/23 49/60/23 50/59/23
f 18/27/24 4/14/24 44/58/24 43/52/24
f 17/16/25 13/21/25 45/50/25 41/17/25
f 4/14/26 2/13/26 42/18/26 44/58/26
f 30/23/27 14/22/27 46/53/27 52/61/27
f 22/41/28 24/40/28 50/59/28 48/47/28
