# Blender v3.1.2 OBJ File: 'barrel - sniper.blend'
# www.blender.org
o Cube
v 0.365219 0.147491 -0.060376
v 0.365219 -0.021039 -0.060376
v 0.365219 0.147491 0.060376
v 0.365219 -0.021039 0.060376
v -0.217246 0.147491 -0.079550
v -0.217246 -0.149484 -0.079550
v -0.217246 0.147491 0.079550
v -0.217246 -0.149484 0.079550
v 0.365219 0.026091 -0.060376
v 0.365219 0.026091 0.060376
v 0.612552 0.128963 -0.041848
v 0.612552 0.128963 0.041848
v 0.612552 0.044619 -0.041848
v 0.612552 0.044619 0.041848
v 0.612552 0.147491 -0.060376
v 0.612552 0.147491 0.060376
v 0.612552 0.026091 -0.060376
v 0.612552 0.026091 0.060376
v 1.523610 0.128963 -0.041848
v 1.523610 0.128963 0.041848
v 1.523610 0.044619 -0.041848
v 1.523610 0.044619 0.041848
v 1.545289 0.141133 -0.053924
v 1.545289 0.141133 0.053924
v 1.545289 0.032449 -0.053924
v 1.545289 0.032449 0.053924
v 1.725267 0.141133 -0.053924
v 1.725267 0.141133 0.053924
v 1.725267 0.032449 -0.053924
v 1.725267 0.032449 0.053924
vt 0.625000 0.500000
vt 0.875000 0.500000
vt 0.875000 0.750000
vt 0.625000 0.750000
vt 0.375000 0.750000
vt 0.500000 0.750000
vt 0.625000 1.000000
vt 0.375000 1.000000
vt 0.375000 0.000000
vt 0.625000 0.000000
vt 0.625000 0.250000
vt 0.375000 0.250000
vt 0.125000 0.500000
vt 0.375000 0.500000
vt 0.125000 0.750000
vt 0.500000 0.500000
vt 0.500000 0.500000
vt 0.500000 0.750000
vt 0.605922 0.711640
vt 0.519078 0.711640
vt 0.519078 0.711640
vt 0.605922 0.711640
vt 0.625000 0.500000
vt 0.625000 0.750000
vt 0.605922 0.538360
vt 0.519078 0.538360
vt 0.519078 0.711640
vt 0.605922 0.711640
vt 0.605922 0.538360
vt 0.519078 0.538360
vt 0.605922 0.538360
vt 0.605922 0.711640
vt 0.605922 0.538360
vt 0.519078 0.538360
vt 0.519078 0.538360
vt 0.519078 0.711640
vn 0.0000 1.0000 0.0000
vn 0.0329 0.0000 0.9995
vn -1.0000 0.0000 0.0000
vn 0.2153 -0.9765 0.0000
vn 0.0000 -1.0000 0.0000
vn 0.0329 0.0000 -0.9995
vn 1.0000 0.0000 0.0000
vn 0.0000 0.0000 1.0000
vn 0.0000 0.0000 -1.0000
vn -0.4866 0.0000 0.8736
vn -0.4895 0.8720 0.0000
vn -0.4895 -0.8720 0.0000
vn -0.4866 0.0000 -0.8736
s off
f 1/1/1 5/2/1 7/3/1 3/4/1
f 4/5/2 10/6/2 3/4/2 7/7/2 8/8/2
f 8/9/3 7/10/3 5/11/3 6/12/3
f 6/13/4 2/14/4 4/5/4 8/15/4
f 10/6/5 9/16/5 17/17/5 18/18/5
f 6/12/6 5/11/6 1/1/6 9/16/6 2/14/6
f 2/14/7 9/16/7 10/6/7 4/5/7
f 12/19/8 14/20/8 22/21/8 20/22/8
f 9/16/9 1/1/9 15/23/9 17/17/9
f 3/4/8 10/6/8 18/18/8 16/24/8
f 1/1/1 3/4/1 16/24/1 15/23/1
f 12/19/7 11/25/7 15/23/7 16/24/7
f 11/25/7 13/26/7 17/17/7 15/23/7
f 14/20/7 12/19/7 16/24/7 18/18/7
f 13/26/7 14/20/7 18/18/7 17/17/7
f 20/22/10 22/21/10 26/27/10 24/28/10
f 11/25/1 12/19/1 20/22/1 19/29/1
f 14/20/5 13/26/5 21/30/5 22/21/5
f 13/26/9 11/25/9 19/29/9 21/30/9
f 23/31/1 24/28/1 28/32/1 27/33/1
f 19/29/11 20/22/11 24/28/11 23/31/11
f 22/21/12 21/30/12 25/34/12 26/27/12
f 21/30/13 19/29/13 23/31/13 25/34/13
f 29/35/7 27/33/7 28/32/7 30/36/7
f 26/27/5 25/34/5 29/35/5 30/36/5
f 25/34/9 23/31/9 27/33/9 29/35/9
f 24/28/8 26/27/8 30/36/8 28/32/8
