# Blender v3.1.2 OBJ File: 'chamber - hand loaded.blend'
# www.blender.org
o Cube
v 0.459794 0.147491 -0.087217
v 0.459794 -0.149484 -0.087217
v 0.459794 0.147491 0.087217
v 0.459794 -0.149484 0.087217
v -0.310372 0.147491 -0.087217
v -0.310372 0.147491 0.087217
v -0.074124 -0.236873 -0.087217
v -0.074124 -0.236873 0.087217
v -0.458062 -0.483835 -0.087217
v -0.458062 -0.483835 0.087217
v -0.255779 -0.483835 -0.087217
v -0.255779 -0.483835 0.087217
v -0.143100 -0.236121 0.087217
v -0.143100 -0.236121 -0.087217
v -0.044032 -0.149484 0.087217
v -0.044032 -0.149484 -0.087217
v -0.044032 0.147491 0.087217
v -0.044032 0.147491 -0.087217
v 0.306054 -0.149484 0.087217
v 0.306054 0.147491 -0.087217
v 0.306054 -0.149484 -0.087217
v 0.306054 0.147491 0.087217
v -0.098902 0.090579 0.087217
v -0.098902 -0.005307 0.141187
v -0.098902 -0.101194 0.087217
v 0.306054 0.090579 0.087217
v 0.306054 -0.005307 0.141187
v 0.306054 -0.101194 0.087217
v -0.098902 -0.101194 -0.087217
v -0.098902 -0.005307 -0.141187
v -0.098902 0.090579 -0.087217
v 0.306054 -0.101194 -0.087217
v 0.306054 -0.005307 -0.141187
v 0.306054 0.090579 -0.087217
v -0.310372 -0.149484 0.087217
v -0.310372 -0.149484 -0.087217
vt 0.875000 0.500000
vt 0.750000 0.750000
vt 0.750000 0.500000
vt 0.375000 0.500000
vt 0.352351 0.750000
vt 0.352351 0.500000
vt 0.625000 0.500000
vt 0.375000 0.750000
vt 0.250000 0.500000
vt 0.125000 0.750000
vt 0.125000 0.500000
vt 0.250000 0.750000
vt 0.250000 0.500000
vt 0.250000 0.750000
vt 0.250000 0.500000
vt 0.312500 0.500000
vt 0.421875 0.750000
vt 0.531250 0.750000
vt 0.640625 0.750000
vt 0.421875 0.500000
vt 0.640625 0.500000
vt 0.531250 0.500000
vt 0.500000 0.500000
vt 0.500000 0.750000
vt 0.590812 0.750000
vt 0.670299 0.750000
vt 0.670299 0.500000
vt 0.590812 0.500000
vt 0.431838 0.500000
vt 0.511325 0.500000
vt 0.625000 0.750000
vt 0.431838 0.750000
vt 0.511325 0.750000
vt 0.312500 0.750000
vt 0.250000 0.750000
vt 0.875000 0.750000
vn 0.0000 1.0000 -0.0000
vn 0.0000 -1.0000 0.0000
vn 1.0000 0.0000 0.0000
vn 0.9103 -0.4141 0.0000
vn -0.0109 -0.9999 0.0000
vn 0.9455 -0.3256 0.0000
vn -1.0000 0.0000 0.0000
vn -0.9147 0.4041 0.0000
vn 0.0000 0.0000 1.0000
vn 0.0000 0.0000 -1.0000
vn 0.0000 -0.4905 0.8714
vn 0.0000 0.4905 0.8714
vn 0.0000 -0.4905 -0.8714
vn 0.0000 0.4905 -0.8714
s off
f 5/1/1 17/2/1 18/3/1
f 2/4/2 19/5/2 21/6/2
f 1/7/3 4/8/3 2/4/3
f 11/9/2 10/10/2 9/11/2
f 13/12/4 11/9/4 14/13/4
f 8/14/5 14/13/5 7/15/5
f 16/16/6 8/14/6 7/15/6
f 25/17/7 24/18/7 23/19/7
f 29/20/7 31/21/7 30/22/7
f 36/23/8 10/10/8 35/24/8
f 26/25/9 17/2/9 23/19/9
f 18/3/1 22/26/1 20/27/1
f 34/28/10 18/3/10 20/27/10
f 34/28/3 32/29/3 33/30/3
f 20/27/1 3/31/1 1/7/1
f 28/32/3 26/25/3 27/33/3
f 21/6/2 15/34/2 16/16/2
f 28/32/9 15/34/9 19/5/9
f 27/33/11 25/17/11 28/32/11
f 26/25/12 24/18/12 27/33/12
f 16/16/10 32/29/10 21/6/10
f 29/20/13 33/30/13 32/29/13
f 30/22/14 34/28/14 33/30/14
f 34/28/10 20/27/10 1/7/10
f 36/23/10 5/1/10 31/21/10
f 10/10/9 12/35/9 13/12/9
f 3/31/9 22/26/9 26/25/9
f 5/1/7 35/24/7 6/36/7
f 5/1/1 6/36/1 17/2/1
f 2/4/2 4/8/2 19/5/2
f 1/7/3 3/31/3 4/8/3
f 11/9/2 12/35/2 10/10/2
f 13/12/4 12/35/4 11/9/4
f 8/14/5 13/12/5 14/13/5
f 16/16/6 15/34/6 8/14/6
f 36/23/8 9/11/8 10/10/8
f 26/25/9 22/26/9 17/2/9
f 18/3/1 17/2/1 22/26/1
f 34/28/10 31/21/10 18/3/10
f 20/27/1 22/26/1 3/31/1
f 21/6/2 19/5/2 15/34/2
f 28/32/9 25/17/9 15/34/9
f 27/33/11 24/18/11 25/17/11
f 26/25/12 23/19/12 24/18/12
f 16/16/10 29/20/10 32/29/10
f 29/20/13 30/22/13 33/30/13
f 30/22/14 31/21/14 34/28/14
f 1/7/10 2/4/10 34/28/10
f 2/4/10 21/6/10 32/29/10
f 32/29/10 34/28/10 2/4/10
f 29/20/10 16/16/10 36/23/10
f 16/16/10 7/15/10 14/13/10
f 14/13/10 11/9/10 9/11/10
f 16/16/10 14/13/10 36/23/10
f 5/1/10 18/3/10 31/21/10
f 31/21/10 29/20/10 36/23/10
f 14/13/10 9/11/10 36/23/10
f 8/14/9 15/34/9 13/12/9
f 15/34/9 25/17/9 35/24/9
f 13/12/9 15/34/9 35/24/9
f 23/19/9 17/2/9 6/36/9
f 25/17/9 23/19/9 35/24/9
f 23/19/9 6/36/9 35/24/9
f 35/24/9 10/10/9 13/12/9
f 19/5/9 4/8/9 28/32/9
f 4/8/9 3/31/9 26/25/9
f 28/32/9 4/8/9 26/25/9
f 5/1/7 36/23/7 35/24/7
