# Blender v3.1.2 OBJ File: 'chamber - semi auto.blend'
# www.blender.org
o Cube.001
v 0.840730 0.147491 -0.107433
v 0.840730 -0.149484 -0.107433
v 0.840730 0.147491 0.107433
v 0.840730 -0.149484 0.107433
v -0.473136 0.147491 -0.107433
v -0.432701 -0.234493 -0.107433
v -0.473136 0.147491 0.107433
v -0.432701 -0.234493 0.107433
v 0.402775 -0.149484 -0.107433
v -0.035180 -0.234493 -0.107433
v -0.035180 -0.234493 0.107433
v 0.402775 -0.149484 0.107433
v -0.181166 -0.234493 -0.107433
v -0.295904 -0.234493 -0.107433
v -0.295904 -0.234493 0.107433
v -0.181166 -0.234493 0.107433
v -0.473136 -0.520769 -0.107433
v -0.473136 -0.520769 0.107433
v -0.327151 -0.520769 -0.107433
v -0.234660 -0.520769 0.107433
v -0.102699 -0.432518 0.107433
v -0.102699 -0.432518 -0.107433
v -0.234660 -0.520769 -0.107433
v -0.327151 -0.520769 0.107433
v -0.234660 -0.377631 0.107433
v -0.234660 -0.377631 -0.107433
v -0.327151 -0.377631 -0.107433
v -0.327151 -0.377631 0.107433
v -0.489952 -0.149484 -0.107433
v -0.489952 -0.149484 0.107433
v -0.489952 0.147491 0.107433
v -0.489952 0.147491 -0.107433
vt 0.625000 0.500000
vt 0.875000 0.500000
vt 0.875000 0.750000
vt 0.625000 0.750000
vt 0.375000 0.750000
vt 0.625000 1.000000
vt 0.375000 1.000000
vt 0.375000 0.972222
vt 0.375000 0.944444
vt 0.375000 0.916667
vt 0.375000 0.833333
vt 0.625000 0.250000
vt 0.375000 0.250000
vt 0.375000 0.250000
vt 0.625000 0.250000
vt 0.291667 0.500000
vt 0.375000 0.500000
vt 0.291667 0.750000
vt 0.375000 0.416667
vt 0.375000 0.333333
vt 0.375000 0.305556
vt 0.375000 0.277778
vt 0.375000 0.944444
vt 0.375000 0.944444
vt 0.375000 0.916667
vt 0.208333 0.500000
vt 0.208333 0.750000
vt 0.208333 0.750000
vt 0.208333 0.500000
vt 0.152778 0.500000
vt 0.180556 0.500000
vt 0.180556 0.750000
vt 0.152778 0.750000
vt 0.180556 0.500000
vt 0.180556 0.750000
vt 0.125000 0.500000
vt 0.152778 0.500000
vt 0.152778 0.750000
vt 0.125000 0.750000
vt 0.375000 0.305556
vt 0.375000 0.277778
vt 0.375000 0.277778
vt 0.180556 0.500000
vt 0.375000 0.250000
vt 0.152778 0.500000
vt 0.152778 0.750000
vt 0.180556 0.750000
vt 0.375000 0.000000
vt 0.375000 0.000000
vt 0.375000 1.000000
vt 0.375000 0.972222
vt 0.375000 0.972222
vt 0.375000 0.333333
vt 0.375000 0.305556
vt 0.375000 0.000000
vt 0.625000 0.000000
vt 0.625000 1.000000
vt 0.375000 1.000000
vt 0.875000 0.500000
vt 0.875000 0.750000
vn 0.0000 1.0000 0.0000
vn -0.0000 0.0000 1.0000
vn 0.0000 0.0000 -1.0000
vn 0.0000 -1.0000 0.0000
vn 1.0000 0.0000 0.0000
vn 0.1905 -0.9817 0.0000
vn 0.9465 -0.3227 0.0000
vn 0.5559 -0.8312 0.0000
vn -0.9902 0.1399 0.0000
vn -0.9367 0.3501 0.0000
vn 0.9770 -0.2133 0.0000
vn -1.0000 0.0000 0.0000
vn -0.8294 -0.5586 0.0000
s off
f 1/1/1 5/2/1 7/3/1 3/4/1
f 4/5/2 3/4/2 7/6/2 8/7/2 15/8/2 16/9/2 11/10/2 12/11/2
f 5/12/3 6/13/3 29/14/3 32/15/3
f 9/16/4 2/17/4 4/5/4 12/18/4
f 2/17/5 1/1/5 3/4/5 4/5/5
f 6/13/3 5/12/3 1/1/3 2/17/3 9/19/3 10/20/3 13/21/3 14/22/3
f 11/10/2 16/9/2 25/23/2 20/24/2 21/25/2
f 10/26/6 9/16/6 12/18/6 11/27/6
f 10/26/7 11/27/7 21/28/7 22/29/7
f 14/30/4 13/31/4 16/32/4 15/33/4
f 23/34/8 22/29/8 21/28/8 20/35/8
f 17/36/4 19/37/4 24/38/4 18/39/4
f 23/40/3 19/41/3 27/42/3 26/43/3
f 6/13/3 14/22/3 27/42/3 19/41/3 17/44/3
f 26/43/1 27/45/1 28/46/1 25/47/1
f 8/48/9 6/13/9 17/44/9 18/49/9
f 15/8/2 8/7/2 18/50/2 24/51/2 28/52/2
f 13/21/3 10/20/3 22/53/3 23/40/3 26/54/3
f 16/32/10 13/31/10 26/43/10 25/47/10
f 14/30/11 15/33/11 28/46/11 27/45/11
f 20/24/2 25/47/2 28/52/2 24/51/2
f 24/51/4 19/41/4 23/34/4 20/24/4
f 30/55/12 31/56/12 32/15/12 29/14/12
f 8/7/2 7/6/2 31/57/2 30/58/2
f 6/13/13 8/48/13 30/55/13 29/14/13
f 7/3/1 5/2/1 32/59/1 31/60/1
